name rise34.3697peak60.0498fall86.3158.mot
datacolumns 19
datarows 15
range 4.69832500000000 4.72165200000000
endheader
time	ground_force1_vx	ground_force1_vy	ground_force1_vz	ground_force1_px	ground_force1_py	ground_force1_pz	ground_force2_vx	ground_force2_vy	ground_force2_vz	ground_force2_px	ground_force2_py	ground_force2_pz	ground_torque1_x	ground_torque1_y	ground_torque1_z	ground_torque2_x	ground_torque2_y	ground_torque2_z	
4.69832500000000	8.67284400000000	674.07419000000004	39.41707300000000	0.32078500000000	0.00000000000000	0.11485300000000	0.00000000000000	0.00000000000000	0.00000000000000	0.00000000000000	0.00000000000000	0.00000000000000	0.00000000000000	23.46596700000000	0.00000000000000	0.00000000000000	0.00000000000000	0.00000000000000	
4.69998200000000	8.38256800000000	674.23662200000001	39.49147100000000	0.31984200000000	0.00000000000000	0.11486200000000	0.00000000000000	0.00000000000000	0.00000000000000	0.00000000000000	0.00000000000000	0.00000000000000	0.00000000000000	23.54018300000000	0.00000000000000	0.00000000000000	0.00000000000000	0.00000000000000	
4.70165300000000	8.08728700000000	674.42655800000000	39.57061700000000	0.31891900000000	0.00000000000000	0.11486900000000	0.00000000000000	0.00000000000000	0.00000000000000	0.00000000000000	0.00000000000000	0.00000000000000	0.00000000000000	23.62012700000000	0.00000000000000	0.00000000000000	0.00000000000000	0.00000000000000	
4.70332000000000	7.78654500000000	674.64340100000004	39.65424700000000	0.31801500000000	0.00000000000000	0.11487500000000	0.00000000000000	0.00000000000000	0.00000000000000	0.00000000000000	0.00000000000000	0.00000000000000	0.00000000000000	23.70567600000000	0.00000000000000	0.00000000000000	0.00000000000000	0.00000000000000	
4.70498000000000	7.47990000000000	674.88671399999998	39.74210700000000	0.31713100000000	0.00000000000000	0.11487900000000	0.00000000000000	0.00000000000000	0.00000000000000	0.00000000000000	0.00000000000000	0.00000000000000	0.00000000000000	23.79670600000000	0.00000000000000	0.00000000000000	0.00000000000000	0.00000000000000	
4.70664500000000	7.16692500000000	675.15621799999997	39.83396000000000	0.31626500000000	0.00000000000000	0.11488200000000	0.00000000000000	0.00000000000000	0.00000000000000	0.00000000000000	0.00000000000000	0.00000000000000	0.00000000000000	23.89309700000000	0.00000000000000	0.00000000000000	0.00000000000000	0.00000000000000	
4.70831300000000	6.84721000000000	675.45179599999994	39.92958300000000	0.31541700000000	0.00000000000000	0.11488200000000	0.00000000000000	0.00000000000000	0.00000000000000	0.00000000000000	0.00000000000000	0.00000000000000	0.00000000000000	23.99473000000000	0.00000000000000	0.00000000000000	0.00000000000000	0.00000000000000	
4.70998400000000	6.52036200000000	675.77349000000004	40.02876600000000	0.31458700000000	0.00000000000000	0.11488200000000	0.00000000000000	0.00000000000000	0.00000000000000	0.00000000000000	0.00000000000000	0.00000000000000	0.00000000000000	24.10148800000000	0.00000000000000	0.00000000000000	0.00000000000000	0.00000000000000	
4.71164400000000	6.18600500000000	676.12149999999997	40.13131800000000	0.31377300000000	0.00000000000000	0.11487900000000	0.00000000000000	0.00000000000000	0.00000000000000	0.00000000000000	0.00000000000000	0.00000000000000	0.00000000000000	24.21325700000000	0.00000000000000	0.00000000000000	0.00000000000000	0.00000000000000	
4.71331500000000	5.84378100000000	676.49618599999997	40.23706200000000	0.31297600000000	0.00000000000000	0.11487400000000	0.00000000000000	0.00000000000000	0.00000000000000	0.00000000000000	0.00000000000000	0.00000000000000	0.00000000000000	24.32992300000000	0.00000000000000	0.00000000000000	0.00000000000000	0.00000000000000	
4.71498300000000	5.49335000000000	676.89805500000000	40.34583800000000	0.31219300000000	0.00000000000000	0.11486800000000	0.00000000000000	0.00000000000000	0.00000000000000	0.00000000000000	0.00000000000000	0.00000000000000	0.00000000000000	24.45137700000000	0.00000000000000	0.00000000000000	0.00000000000000	0.00000000000000	
4.71665200000000	5.13439300000000	677.32776899999999	40.45750400000000	0.31142500000000	0.00000000000000	0.11486000000000	0.00000000000000	0.00000000000000	0.00000000000000	0.00000000000000	0.00000000000000	0.00000000000000	0.00000000000000	24.57750800000000	0.00000000000000	0.00000000000000	0.00000000000000	0.00000000000000	
4.71831800000000	4.76660800000000	677.78613099999995	40.57193200000000	0.31067000000000	0.00000000000000	0.11485100000000	0.00000000000000	0.00000000000000	0.00000000000000	0.00000000000000	0.00000000000000	0.00000000000000	0.00000000000000	24.70820900000000	0.00000000000000	0.00000000000000	0.00000000000000	0.00000000000000	
4.71998100000000	4.38971700000000	678.27408100000002	40.68901300000000	0.30992800000000	0.00000000000000	0.11484000000000	0.00000000000000	0.00000000000000	0.00000000000000	0.00000000000000	0.00000000000000	0.00000000000000	0.00000000000000	24.84337500000000	0.00000000000000	0.00000000000000	0.00000000000000	0.00000000000000	
4.72165200000000	4.00346000000000	678.79269399999998	40.80865300000000	0.30919600000000	0.00000000000000	0.11482700000000	0.00000000000000	0.00000000000000	0.00000000000000	0.00000000000000	0.00000000000000	0.00000000000000	0.00000000000000	24.98290100000000	0.00000000000000	0.00000000000000	0.00000000000000	0.00000000000000	
